<svg
   width="32"
   height="33"
   viewBox="0 0 32 33"
   fill="none"
   version="1.1"
   id="svg26"
   xmlns="http://www.w3.org/2000/svg"
   xmlns:svg="http://www.w3.org/2000/svg">
  <defs
     id="defs26" />
  <ellipse
     style="fill:#0082ff;fill-opacity:1;stroke-width:1.36748"
     id="path26"
     cx="16.080507"
     cy="16.569916"
     rx="15.940679"
     ry="16.569916" />
  <ellipse
     style="fill:#0027ff;fill-opacity:1;stroke-width:1.07614"
     id="path26-5"
     cx="16.220339"
     cy="16.995764"
     rx="12.444916"
     ry="13.144069" />
  <g
     id="surface1"
     transform="translate(6.1567797,6.9194915)">
    <path
       style="fill:#00ddcb;fill-opacity:1;fill-rule:evenodd;stroke:none"
       d="m 10,0 c 1.230469,0 2.410156,0.222656 3.496094,0.628906 L 10.957031,3.167969 C 10.644531,3.125 10.324219,3.101562 10,3.101562 6.191406,3.101562 3.105469,6.191406 3.105469,10 c 0,0.324219 0.019531,0.644531 0.066406,0.957031 L 0.632812,13.496094 C 0.222656,12.410156 0,11.230469 0,10 0,4.476562 4.476562,0 10,0 Z m 9.371094,6.503906 C 19.777344,7.59375 20,8.769531 20,10 20,15.523438 15.523438,20 10,20 8.769531,20 7.59375,19.777344 6.503906,19.371094 l 2.539063,-2.539063 c 0.3125,0.04297 0.632812,0.06641 0.957031,0.06641 3.808594,0 6.894531,-3.085938 6.894531,-6.898438 0,-0.320312 -0.01953,-0.640625 -0.06641,-0.953125 z m 0,0"
       id="path1" />
    <path
       style="fill:#e9e9e9;fill-opacity:1;fill-rule:nonzero;stroke:none"
       d="M 3.441406,13.691406 4.90625,12.226562 c 0.320312,-0.320312 0.636719,-0.484374 0.945312,-0.488281 0.3125,-0.0078 0.609376,0.128907 0.890626,0.410157 C 7.03125,12.4375 7.167969,12.75 7.15625,13.085938 7.144531,13.421875 6.960938,13.765625 6.605469,14.121094 l -0.484375,0.484375 1.058594,1.058593 -0.886719,0.882813 z M 5.542969,14.027344 5.761719,13.8125 C 5.933594,13.640625 6.023438,13.492188 6.035156,13.363281 6.042969,13.234375 6.003906,13.125 5.910156,13.03125 5.820312,12.941406 5.714844,12.898438 5.589844,12.894531 5.46875,12.890625 5.324219,12.976562 5.15625,13.140625 l -0.25,0.25 z m 4.53125,-2.203125 -1,1 L 9.402344,13.4375 8.503906,14.335938 6.722656,10.410156 7.6875,9.445312 11.609375,11.230469 10.6875,12.152344 Z M 9.269531,11.394531 7.933594,10.679688 8.648438,12.015625 Z M 10.746094,10.203125 11.53125,9.316406 C 11.683594,9.433594 11.824219,9.5 11.953125,9.515625 12.15625,9.539062 12.34375,9.46875 12.511719,9.296875 c 0.125,-0.125 0.195312,-0.25 0.203125,-0.375 C 12.722656,8.792969 12.6875,8.691406 12.613281,8.613281 12.539062,8.539062 12.441406,8.507812 12.316406,8.511719 12.195312,8.515625 11.992188,8.613281 11.703125,8.796875 11.230469,9.09375 10.839844,9.253906 10.53125,9.277344 10.222656,9.296875 9.953125,9.199219 9.730469,8.976562 9.585938,8.828125 9.488281,8.648438 9.445312,8.433594 9.398438,8.214844 9.421875,7.988281 9.519531,7.742188 9.617188,7.496094 9.8125,7.226562 10.109375,6.929688 c 0.367187,-0.363282 0.710937,-0.574219 1.039063,-0.628907 0.328124,-0.054687 0.65625,0.046875 0.988281,0.304688 l -0.78125,0.878906 C 11.203125,7.375 11.0625,7.328125 10.933594,7.339844 c -0.128906,0.011718 -0.257813,0.082031 -0.378906,0.207031 -0.105469,0.101563 -0.160157,0.199219 -0.167969,0.292969 -0.0078,0.097656 0.01953,0.175781 0.08203,0.238281 0.04687,0.046875 0.105469,0.066406 0.183594,0.058594 0.07813,-0.00391 0.214844,-0.066407 0.402344,-0.1875 0.46875,-0.304688 0.828124,-0.496094 1.078124,-0.578125 0.25,-0.078125 0.476563,-0.097656 0.679688,-0.046875 0.203125,0.050781 0.378906,0.15625 0.535156,0.3125 0.183594,0.179687 0.300782,0.398437 0.355469,0.65625 0.05078,0.253906 0.02734,0.515625 -0.07422,0.777343 -0.10156,0.257813 -0.28906,0.527344 -0.566404,0.804688 -0.484375,0.484375 -0.914062,0.726562 -1.285156,0.726562 -0.375,0 -0.71875,-0.132812 -1.03125,-0.398437 z M 13.578125,7.375 14.363281,6.484375 c 0.152344,0.117187 0.292969,0.183594 0.417969,0.199219 0.207031,0.023437 0.394531,-0.046875 0.5625,-0.214844 0.125,-0.125 0.191406,-0.25 0.203125,-0.378906 0.0078,-0.125 -0.02734,-0.230469 -0.105469,-0.308594 C 15.371094,5.710938 15.269531,5.675781 15.148438,5.679688 15.027344,5.6875 14.820312,5.78125 14.53125,5.964844 14.058594,6.265625 13.671875,6.425781 13.359375,6.445312 13.050781,6.46875 12.785156,6.367188 12.5625,6.144531 12.414062,5.996094 12.320312,5.816406 12.273438,5.601562 12.230468,5.386719 12.253908,5.15625 12.351558,4.910156 12.449218,4.667969 12.644527,4.394531 12.941402,4.101562 13.304684,3.734375 13.65234,3.523438 13.976558,3.46875 c 0.328126,-0.054688 0.65625,0.046875 0.992188,0.308594 l -0.78125,0.875 c -0.15234,-0.105469 -0.292965,-0.15625 -0.421871,-0.140625 -0.128906,0.00781 -0.257813,0.078125 -0.378906,0.203125 -0.105469,0.101562 -0.160157,0.199218 -0.167969,0.292968 -0.0078,0.097657 0.01953,0.175782 0.08203,0.238282 0.04687,0.046875 0.105469,0.066406 0.183594,0.058594 0.07813,-0.00391 0.214844,-0.066407 0.402344,-0.1875 0.46875,-0.304688 0.828125,-0.496094 1.078125,-0.578126 0.25,-0.078124 0.476562,-0.097656 0.679687,-0.046874 0.203125,0.050781 0.378907,0.15625 0.535157,0.3125 0.183593,0.179687 0.300781,0.398437 0.355468,0.65625 0.05078,0.253906 0.02734,0.515624 -0.07422,0.777343 -0.101563,0.257813 -0.289063,0.527344 -0.566407,0.804688 -0.484375,0.484375 -0.914062,0.726562 -1.285156,0.726562 -0.378906,0 -0.71875,-0.132812 -1.03125,-0.394531 z m 0,0"
       id="path2" />
  </g>
</svg>
